<?xml version="1.0" encoding="UTF-8"?>
<svg width="49px" height="49px" viewBox="0 0 49 49" version="1.1" xmlns="http://www.w3.org/2000/svg" xmlns:xlink="http://www.w3.org/1999/xlink">
    <title>Design-slides-faster-with-built-in-intelligence</title>
    <g id="Page-1" stroke="none" stroke-width="1" fill="none" fill-rule="evenodd">
        <g id="Design-slides-faster-with-built-in-intelligence" transform="translate(0.500000, 0.960000)">
            <circle id="Oval" fill="#1A73E8" cx="24" cy="24" r="24"></circle>
            <g id="Group-28" transform="translate(10.000000, 10.000000)" fill="#FFFFFF">
                <rect id="Rectangle" fill-opacity="0.01" x="0" y="0" width="28" height="28"></rect>
                <g id="Group-26" transform="translate(2.915754, 4.627803)" fill-rule="nonzero">
                    <path d="M2.65220682,14.5871375 L2.65220682,2.65220682 L18.5654477,2.65220682 L18.5654477,8.07596975 C21.2176545,6.72751325 18.5654477,8.07596975 21.2176545,6.72751325 L21.2176545,2.65220682 C21.2176545,1.19349307 20.0241615,0 18.5654477,0 L2.65220682,0 C1.19349307,0 0,1.19349307 0,2.65220682 L0,14.5871375 C0,16.0458512 1.19349307,17.2393443 2.65220682,17.2393443 L12.05428,17.2393443 C9.96707039,14.5871375 12.05428,17.2393443 9.96707039,14.5871375 L2.65220682,14.5871375 Z" id="Path"></path>
                    <path d="M15.8026335,22.3002778 L16.6398717,16.4396107 L13.7095381,16.4396107 C13.5002286,16.4396107 13.3711544,16.3837948 13.3223155,16.272163 C13.2734766,16.1605313 13.304873,16.0070376 13.4165048,15.811682 L18.314348,7.22999086 L19.1515862,7.22999086 L18.314348,13.090658 L21.2446816,13.090658 C21.4539912,13.090658 21.5830654,13.1464739 21.6319043,13.2581056 C21.6807432,13.3697374 21.6493467,13.5232311 21.537715,13.7185866 L16.6398717,22.3002778 L15.8026335,22.3002778 Z" id="Path" transform="translate(17.477110, 14.765134) rotate(33.000000) translate(-17.477110, -14.765134) "></path>
                </g>
            </g>
        </g>
    </g>
</svg>