<svg height="24" viewBox="0 0 25 24" width="25" xmlns="http://www.w3.org/2000/svg"><g fill="none" fill-rule="evenodd"><path d="m.881285 0h24v24h-24z" fill="#fff" fill-opacity=".01"/><g fill-rule="nonzero" transform="translate(1.881285 1)"><path d="m21.6804469 11.25c0-.78-.070391-1.53-.2011173-2.25h-10.4178771v4.26h5.9530726c-.2614525 1.37-1.04581 2.53-2.2223463 3.31v2.77h3.5899441c2.0916201-1.92 3.298324-4.74 3.298324-8.09z" fill="#4285f4"/><path d="m11.0614525 22c2.9865922 0 5.4905028-.98 7.3206704-2.66l-3.5899441-2.77c-.9854749.66-2.2424581 1.06-3.7307263 1.06-2.87597764 0-5.31955306-1.93-6.19441339-4.53h-3.68044693v2.84c1.82011173 3.59 5.55083799 6.06 9.87486032 6.06z" fill="#34a853"/><path d="m4.86703911 13.09c-.22122905-.66-.35195531-1.36-.35195531-2.09s.13072626-1.43.35195531-2.09v-2.84h-3.68044693c-.75418994 1.48-1.18659218 3.15-1.18659218 4.93s.43240224 3.45 1.18659218 4.93l2.86592179-2.22z" fill="#fbbc05"/><path d="m11.0614525 4.38c1.6290503 0 3.077095.56 4.2335196 1.64l3.1675977-3.15c-1.9206704-1.78-4.4145251-2.87-7.4011173-2.87-4.32402233 0-8.05474859 2.47-9.87486032 6.07l3.68044693 2.84c.87486033-2.6 3.31843575-4.53 6.19441339-4.53z" fill="#ea4335"/></g></g></svg>