<svg width="225" height="32" viewBox="0 0 225 32" fill="none" xmlns="http://www.w3.org/2000/svg">
<rect width="117" height="32" rx="4" fill="#F9AB00"/>
<path d="M23.649 22.288C22.701 22.288 21.819 22.12 21.003 21.784C20.187 21.436 19.473 20.956 18.861 20.344C18.261 19.732 17.787 19.018 17.439 18.202C17.103 17.386 16.935 16.504 16.935 15.556C16.935 14.608 17.103 13.726 17.439 12.91C17.787 12.094 18.261 11.38 18.861 10.768C19.473 10.156 20.187 9.682 21.003 9.346C21.819 8.998 22.701 8.824 23.649 8.824C24.657 8.824 25.557 9.01 26.349 9.382C27.141 9.742 27.831 10.258 28.419 10.93L27.033 12.28C26.601 11.764 26.109 11.374 25.557 11.11C25.017 10.834 24.387 10.696 23.667 10.696C22.803 10.696 22.011 10.9 21.291 11.308C20.571 11.704 19.995 12.268 19.563 13C19.143 13.72 18.933 14.572 18.933 15.556C18.933 16.54 19.143 17.398 19.563 18.13C19.995 18.85 20.571 19.414 21.291 19.822C22.011 20.218 22.803 20.416 23.667 20.416C24.447 20.416 25.137 20.254 25.737 19.93C26.349 19.606 26.889 19.162 27.357 18.598L28.779 19.966C28.179 20.674 27.441 21.238 26.565 21.658C25.701 22.078 24.729 22.288 23.649 22.288ZM34.8895 22.288C33.9415 22.288 33.1075 22.072 32.3875 21.64C31.6675 21.208 31.1035 20.626 30.6955 19.894C30.2875 19.162 30.0835 18.334 30.0835 17.41C30.0835 16.498 30.2875 15.676 30.6955 14.944C31.1035 14.2 31.6675 13.612 32.3875 13.18C33.1075 12.748 33.9415 12.532 34.8895 12.532C35.8255 12.532 36.6535 12.748 37.3735 13.18C38.0935 13.612 38.6575 14.2 39.0655 14.944C39.4735 15.676 39.6775 16.498 39.6775 17.41C39.6775 18.334 39.4735 19.162 39.0655 19.894C38.6575 20.626 38.0935 21.208 37.3735 21.64C36.6535 22.072 35.8255 22.288 34.8895 22.288ZM34.8895 20.506C35.3935 20.506 35.8615 20.386 36.2935 20.146C36.7255 19.894 37.0735 19.54 37.3375 19.084C37.6135 18.616 37.7515 18.058 37.7515 17.41C37.7515 16.762 37.6135 16.21 37.3375 15.754C37.0735 15.286 36.7255 14.932 36.2935 14.692C35.8615 14.44 35.3935 14.314 34.8895 14.314C34.3855 14.314 33.9115 14.44 33.4675 14.692C33.0355 14.932 32.6815 15.286 32.4055 15.754C32.1415 16.21 32.0095 16.762 32.0095 17.41C32.0095 18.058 32.1415 18.616 32.4055 19.084C32.6815 19.54 33.0355 19.894 33.4675 20.146C33.9115 20.386 34.3855 20.506 34.8895 20.506ZM41.5422 22V12.82H43.3782V14.08H43.4862C43.7502 13.636 44.1342 13.27 44.6382 12.982C45.1422 12.682 45.7002 12.532 46.3122 12.532C46.9962 12.532 47.5782 12.694 48.0582 13.018C48.5382 13.342 48.8802 13.75 49.0842 14.242C49.3842 13.762 49.7922 13.36 50.3082 13.036C50.8242 12.7 51.4542 12.532 52.1982 12.532C53.2782 12.532 54.0822 12.862 54.6102 13.522C55.1382 14.17 55.4022 15.034 55.4022 16.114V22H53.4762V16.438C53.4762 15.706 53.3142 15.172 52.9902 14.836C52.6782 14.488 52.2402 14.314 51.6762 14.314C51.2322 14.314 50.8422 14.44 50.5062 14.692C50.1702 14.932 49.9062 15.262 49.7142 15.682C49.5342 16.102 49.4442 16.57 49.4442 17.086V22H47.5182V16.438C47.5182 15.706 47.3562 15.172 47.0322 14.836C46.7082 14.488 46.2522 14.314 45.6642 14.314C45.2322 14.314 44.8542 14.44 44.5302 14.692C44.2062 14.944 43.9482 15.28 43.7562 15.7C43.5762 16.12 43.4862 16.588 43.4862 17.104V22H41.5422ZM57.841 22V12.82H59.677V14.08H59.785C60.049 13.636 60.433 13.27 60.937 12.982C61.441 12.682 61.999 12.532 62.611 12.532C63.295 12.532 63.877 12.694 64.357 13.018C64.837 13.342 65.179 13.75 65.383 14.242C65.683 13.762 66.091 13.36 66.607 13.036C67.123 12.7 67.753 12.532 68.497 12.532C69.577 12.532 70.381 12.862 70.909 13.522C71.437 14.17 71.701 15.034 71.701 16.114V22H69.775V16.438C69.775 15.706 69.613 15.172 69.289 14.836C68.977 14.488 68.539 14.314 67.975 14.314C67.531 14.314 67.141 14.44 66.805 14.692C66.469 14.932 66.205 15.262 66.013 15.682C65.833 16.102 65.743 16.57 65.743 17.086V22H63.817V16.438C63.817 15.706 63.655 15.172 63.331 14.836C63.007 14.488 62.551 14.314 61.963 14.314C61.531 14.314 61.153 14.44 60.829 14.692C60.505 14.944 60.247 15.28 60.055 15.7C59.875 16.12 59.785 16.588 59.785 17.104V22H57.841ZM78.3339 22.288C77.4339 22.288 76.6299 22.078 75.9219 21.658C75.2139 21.238 74.6559 20.662 74.2479 19.93C73.8519 19.198 73.6539 18.364 73.6539 17.428C73.6539 16.552 73.8459 15.742 74.2299 14.998C74.6139 14.254 75.1479 13.66 75.8319 13.216C76.5279 12.76 77.3259 12.532 78.2259 12.532C79.1739 12.532 79.9779 12.736 80.6379 13.144C81.3099 13.552 81.8199 14.11 82.1679 14.818C82.5159 15.526 82.6899 16.324 82.6899 17.212C82.6899 17.344 82.6839 17.464 82.6719 17.572C82.6719 17.68 82.6659 17.764 82.6539 17.824H75.5619C75.6579 18.736 75.9759 19.42 76.5159 19.876C77.0679 20.332 77.6919 20.56 78.3879 20.56C79.0119 20.56 79.5279 20.422 79.9359 20.146C80.3439 19.858 80.6679 19.504 80.9079 19.084L82.5099 19.858C82.1139 20.578 81.5739 21.166 80.8899 21.622C80.2059 22.066 79.3539 22.288 78.3339 22.288ZM78.2439 14.188C77.5959 14.188 77.0439 14.386 76.5879 14.782C76.1319 15.178 75.8259 15.706 75.6699 16.366H80.7639C80.7399 16.054 80.6379 15.73 80.4579 15.394C80.2779 15.058 80.0019 14.776 79.6299 14.548C79.2699 14.308 78.8079 14.188 78.2439 14.188ZM84.7434 22V12.82H86.5794V14.08H86.6874C86.9514 13.636 87.3414 13.27 87.8574 12.982C88.3854 12.682 88.9614 12.532 89.5854 12.532C90.7134 12.532 91.5594 12.868 92.1234 13.54C92.6874 14.212 92.9694 15.1 92.9694 16.204V22H91.0434V16.456C91.0434 15.712 90.8574 15.172 90.4854 14.836C90.1134 14.488 89.6274 14.314 89.0274 14.314C88.5594 14.314 88.1514 14.446 87.8034 14.71C87.4554 14.962 87.1794 15.298 86.9754 15.718C86.7834 16.138 86.6874 16.588 86.6874 17.068V22H84.7434ZM95.9498 19.336V14.512H94.3478V12.82H95.9498V10.228H97.8938V12.82H100.144V14.512H97.8938V18.922C97.8938 19.378 97.9838 19.726 98.1638 19.966C98.3558 20.206 98.6738 20.326 99.1178 20.326C99.3458 20.326 99.5378 20.296 99.6938 20.236C99.8618 20.176 100.03 20.092 100.198 19.984V21.874C99.9938 21.958 99.7778 22.024 99.5498 22.072C99.3218 22.12 99.0518 22.144 98.7398 22.144C97.8878 22.144 97.2098 21.898 96.7058 21.406C96.2018 20.902 95.9498 20.212 95.9498 19.336Z" fill="black"/>
<path d="M156.948 22.288C156 22.288 155.118 22.12 154.302 21.784C153.486 21.436 152.772 20.956 152.16 20.344C151.56 19.732 151.086 19.018 150.738 18.202C150.402 17.386 150.234 16.504 150.234 15.556C150.234 14.608 150.402 13.726 150.738 12.91C151.086 12.094 151.56 11.38 152.16 10.768C152.772 10.156 153.486 9.682 154.302 9.346C155.118 8.998 156 8.824 156.948 8.824C157.956 8.824 158.856 9.01 159.648 9.382C160.44 9.742 161.13 10.258 161.718 10.93L160.332 12.28C159.9 11.764 159.408 11.374 158.856 11.11C158.316 10.834 157.686 10.696 156.966 10.696C156.102 10.696 155.31 10.9 154.59 11.308C153.87 11.704 153.294 12.268 152.862 13C152.442 13.72 152.232 14.572 152.232 15.556C152.232 16.54 152.442 17.398 152.862 18.13C153.294 18.85 153.87 19.414 154.59 19.822C155.31 20.218 156.102 20.416 156.966 20.416C157.746 20.416 158.436 20.254 159.036 19.93C159.648 19.606 160.188 19.162 160.656 18.598L162.078 19.966C161.478 20.674 160.74 21.238 159.864 21.658C159 22.078 158.028 22.288 156.948 22.288ZM166.748 22.288C166.088 22.288 165.5 22.162 164.984 21.91C164.468 21.646 164.066 21.28 163.778 20.812C163.49 20.344 163.346 19.81 163.346 19.21C163.346 18.562 163.514 18.01 163.85 17.554C164.198 17.086 164.66 16.732 165.236 16.492C165.812 16.252 166.448 16.132 167.144 16.132C167.72 16.132 168.224 16.186 168.656 16.294C169.1 16.402 169.436 16.516 169.664 16.636V16.15C169.664 15.55 169.448 15.07 169.016 14.71C168.584 14.35 168.026 14.17 167.342 14.17C166.874 14.17 166.43 14.278 166.01 14.494C165.59 14.698 165.254 14.98 165.002 15.34L163.67 14.314C164.066 13.762 164.588 13.33 165.236 13.018C165.896 12.694 166.616 12.532 167.396 12.532C168.728 12.532 169.754 12.862 170.474 13.522C171.194 14.17 171.554 15.082 171.554 16.258V22H169.664V20.866H169.556C169.316 21.238 168.956 21.568 168.476 21.856C167.996 22.144 167.42 22.288 166.748 22.288ZM167.09 20.704C167.594 20.704 168.038 20.584 168.422 20.344C168.806 20.104 169.106 19.792 169.322 19.408C169.55 19.012 169.664 18.586 169.664 18.13C169.388 17.974 169.064 17.848 168.692 17.752C168.32 17.644 167.924 17.59 167.504 17.59C166.712 17.59 166.148 17.752 165.812 18.076C165.476 18.388 165.308 18.772 165.308 19.228C165.308 19.66 165.47 20.014 165.794 20.29C166.118 20.566 166.55 20.704 167.09 20.704ZM173.945 22V12.82H175.781V14.08H175.889C176.153 13.636 176.543 13.27 177.059 12.982C177.587 12.682 178.163 12.532 178.787 12.532C179.915 12.532 180.761 12.868 181.325 13.54C181.889 14.212 182.171 15.1 182.171 16.204V22H180.245V16.456C180.245 15.712 180.059 15.172 179.687 14.836C179.315 14.488 178.829 14.314 178.229 14.314C177.761 14.314 177.353 14.446 177.005 14.71C176.657 14.962 176.381 15.298 176.177 15.718C175.985 16.138 175.889 16.588 175.889 17.068V22H173.945ZM188.884 22.288C187.96 22.288 187.144 22.078 186.436 21.658C185.728 21.238 185.17 20.662 184.762 19.93C184.354 19.186 184.15 18.346 184.15 17.41C184.15 16.474 184.354 15.64 184.762 14.908C185.17 14.164 185.728 13.582 186.436 13.162C187.144 12.742 187.96 12.532 188.884 12.532C189.904 12.532 190.762 12.76 191.458 13.216C192.166 13.672 192.67 14.29 192.97 15.07L191.206 15.79C190.786 14.806 190 14.314 188.848 14.314C188.344 14.314 187.882 14.446 187.462 14.71C187.042 14.962 186.706 15.322 186.454 15.79C186.202 16.246 186.076 16.786 186.076 17.41C186.076 18.034 186.202 18.58 186.454 19.048C186.706 19.516 187.042 19.876 187.462 20.128C187.882 20.38 188.344 20.506 188.848 20.506C189.436 20.506 189.934 20.374 190.342 20.11C190.75 19.834 191.068 19.462 191.296 18.994L193.024 19.75C192.7 20.482 192.184 21.088 191.476 21.568C190.768 22.048 189.904 22.288 188.884 22.288ZM199.047 22.288C198.147 22.288 197.343 22.078 196.635 21.658C195.927 21.238 195.369 20.662 194.961 19.93C194.565 19.198 194.367 18.364 194.367 17.428C194.367 16.552 194.559 15.742 194.943 14.998C195.327 14.254 195.861 13.66 196.545 13.216C197.241 12.76 198.039 12.532 198.939 12.532C199.887 12.532 200.691 12.736 201.351 13.144C202.023 13.552 202.533 14.11 202.881 14.818C203.229 15.526 203.403 16.324 203.403 17.212C203.403 17.344 203.397 17.464 203.385 17.572C203.385 17.68 203.379 17.764 203.367 17.824H196.275C196.371 18.736 196.689 19.42 197.229 19.876C197.781 20.332 198.405 20.56 199.101 20.56C199.725 20.56 200.241 20.422 200.649 20.146C201.057 19.858 201.381 19.504 201.621 19.084L203.223 19.858C202.827 20.578 202.287 21.166 201.603 21.622C200.919 22.066 200.067 22.288 199.047 22.288ZM198.957 14.188C198.309 14.188 197.757 14.386 197.301 14.782C196.845 15.178 196.539 15.706 196.383 16.366H201.477C201.453 16.054 201.351 15.73 201.171 15.394C200.991 15.058 200.715 14.776 200.343 14.548C199.983 14.308 199.521 14.188 198.957 14.188ZM205.474 22V9.112H207.418V22H205.474Z" fill="#5F6368"/>
<rect x="133.5" y="0.5" width="91" height="31" rx="3.5" stroke="#DADCE0"/>
</svg>
