<?xml version="1.0" encoding="UTF-8"?>
<svg width="48px" height="48px" viewBox="0 0 48 48" version="1.1" xmlns="http://www.w3.org/2000/svg" xmlns:xlink="http://www.w3.org/1999/xlink">
    <title>always-work-on-fresh-content</title>
    <g id="Page-1" stroke="none" stroke-width="1" fill="none" fill-rule="evenodd">
        <g id="Opt2_v7" transform="translate(-557.000000, -3545.000000)">
            <g id="always-work-on-fresh-content" transform="translate(557.000000, 3545.000000)">
                <circle id="Oval" fill="#1A73E8" cx="24" cy="24" r="24"></circle>
                <g id="Group-22" transform="translate(13.542465, 14.416894)">
                    <path d="M16.9700632,2.1212579 L16.9700632,16.9700632 L2.1212579,16.9700632 L2.1212579,2.1212579 L16.9700632,2.1212579 M16.9700632,0 L2.1212579,0 C0.954566054,0 0,0.954566054 0,2.1212579 L0,16.9700632 C0,18.136755 0.954566054,19.0913211 2.1212579,19.0913211 L16.9700632,19.0913211 C18.136755,19.0913211 19.0913211,18.136755 19.0913211,16.9700632 L19.0913211,2.1212579 C19.0913211,0.954566054 18.136755,0 16.9700632,0 Z M11.6669184,14.8488053 L4.2425158,14.8488053 L4.2425158,12.7275474 L11.6669184,12.7275474 L11.6669184,14.8488053 Z M14.8488053,10.6062895 L4.2425158,10.6062895 L4.2425158,8.48503159 L14.8488053,8.48503159 L14.8488053,10.6062895 Z M14.8488053,6.36377369 L4.2425158,6.36377369 L4.2425158,4.2425158 L14.8488053,4.2425158 L14.8488053,6.36377369 Z" id="Shape" fill="#FFFFFF" fill-rule="nonzero"></path>
                    <g id="auto_awesome_gm_grey_24dp" transform="translate(10.445969, 10.597728)">
                        <polygon id="Path" fill="#1A73E8" points="0 0 13.554031 0 13.554031 12.3389644 0 12.3389644"></polygon>
                        <path d="M10.9834134,4.62711165 L11.6260678,3.21327198 L13.0399074,2.57061759 L11.6260678,1.92796319 L10.9834134,0.514123517 L10.340759,1.92796319 L8.9269193,2.57061759 L10.340759,3.21327198 L10.9834134,4.62711165 Z M7.12748699,4.88417341 L5.84217819,2.05649407 L4.5568694,4.88417341 L1.72919006,6.16948221 L4.5568694,7.454791 L5.84217819,10.2824703 L7.12748699,7.454791 L9.95516633,6.16948221 L7.12748699,4.88417341 Z M10.9834134,7.71185276 L10.340759,9.12569243 L8.9269193,9.76834683 L10.340759,10.4110012 L10.9834134,11.8248409 L11.6260678,10.4110012 L13.0399074,9.76834683 L11.6260678,9.12569243 L10.9834134,7.71185276 Z" id="Shape" fill="#FFFFFF" fill-rule="nonzero"></path>
                    </g>
                </g>
            </g>
        </g>
    </g>
</svg>