<svg height="24" viewBox="0 0 25 24" width="25" xmlns="http://www.w3.org/2000/svg"><g fill="none" fill-rule="evenodd"><path d="m.5 0h24v24h-24z"/><g fill-rule="nonzero" transform="translate(1.5 2)"><path d="m15.04125 13.25.94875 3.27125 2.48625 2.6775c.33625-.19375.6225-.475.82375-.82375l2.31-4c.20125-.3475.30125-.73625.30125-1.125l-3.5475-.6875z" fill="#ea4335"/><path d="m14.435.30125c-.33625-.19375-.7225-.30125-1.125-.30125h-4.61875c-.4 0-.79.11-1.125.30125l.995 3.35125 2.43 2.58.00875.0175 2.4475-2.61125z" fill="#188038"/><path d="m6.95875 13.25-3.54125-.8125-3.3275.8125c0 .3875.1.775.3 1.12375l2.31 4.00125c.20125.3475.4875.62875.82375.82375l2.44875-2.5225z" fill="#1967d2"/><path d="m18.43375 6.625-3.175-5.5c-.20125-.34875-.4875-.63-.82375-.82375l-3.435 5.94875 4.04125 7h6.86875c0-.38875-.1-.77625-.30125-1.125z" fill="#fbbc04"/><path d="m15.04125 13.25h-8.0825l-3.435 5.94875c.33625.19375.7225.30125 1.125.30125h12.70125c.4025 0 .78875-.1075 1.125-.30125z" fill="#4285f4"/><path d="m11 6.25-3.43375-5.94875c-.33625.19375-.62125.47375-.8225.82125l-6.35375 11.00625c-.2.3475-.3.735-.3 1.12125h6.86875z" fill="#34a853"/></g></g></svg>