<?xml version="1.0" encoding="UTF-8"?>
<svg width="39px" height="48px" viewBox="0 0 39 48" version="1.1" xmlns="http://www.w3.org/2000/svg" xmlns:xlink="http://www.w3.org/1999/xlink">
    <title>privacy-logo</title>
    <g id="Page-1" stroke="none" stroke-width="1" fill="none" fill-rule="evenodd">
        <g id="Opt2_v7" transform="translate(-751.000000, -4500.000000)" fill-rule="nonzero">
            <g id="privacy-logo" transform="translate(751.500000, 4500.000000)">
                <path d="M-2.73654882e-15,19.9692771 C0.0272675586,21.7697833 0.163682379,23.5157543 0.409205946,25.2889544 C1.52767652,32.9274911 5.837992,41.5754666 17.5685496,47.6317146 C18.5233763,48.1227618 19.6418854,48.1227618 20.5966736,47.6317146 C32.3545373,41.5754666 36.6376237,32.9274911 37.7834004,25.2889544 C38.0287314,23.5157543 38.1650692,21.7697833 38.1924138,19.9692771 L38.1924138,9.41176372 C38.1924138,7.74767238 37.1560155,6.27453097 35.6008403,5.72891021 L20.4329912,0.24555823 C19.5600442,-0.0545235631 18.6324851,-0.0545235631 17.7595381,0.24555823 L2.59161198,5.72891021 C1.03662939,6.27453097 -2.73654882e-15,7.77493994 -2.73654882e-15,9.41176372 L-2.73654882e-15,19.9692771 Z" id="Path" fill="#1967D2"></path>
                <path d="M17.7595381,0.245523568 L2.59161198,5.72887169 C1.03662939,6.27449246 -2.73654882e-15,7.77490143 -2.73654882e-15,9.41172521 L-2.73654882e-15,19.9692386 C0.0272675586,21.7697448 0.163682379,23.5156773 0.409205946,25.2889159 C1.52767652,32.9274141 5.837992,41.5754666 17.5958557,47.6317146 C18.0595968,47.8770456 18.57795,47.9860389 19.0962647,47.9860389 L19.0962647,0 C18.6324851,0 18.1960116,0.0818411893 17.7595381,0.245523568 Z" id="Path" fill="#185ABC"></path>
                <path d="M19.0962647,23.815813 L25.3434626,23.815813 C24.9069891,26.4347311 22.6427034,28.344346 19.3145207,28.344346 C15.6589347,28.344346 12.7126519,25.2616869 12.7126519,21.6061009 C12.7126519,17.950515 15.6589347,14.8951234 19.3145207,14.8951234 C20.9513445,14.8951234 22.4244859,15.4680117 23.5975301,16.5592147 L26.7893364,13.3674084 C24.8524155,11.5669022 22.3426447,10.4756992 19.3417882,10.4756992 C13.203699,10.4756992 8.21138648,15.4680117 8.21138648,21.6061009 C8.21138648,27.7441901 13.1764315,32.7365027 19.3417882,32.7365027 C25.7799746,32.7365027 30.0084104,28.2079697 30.0084104,21.8516245 C30.0084104,21.0332126 29.9265692,20.2693743 29.7901929,19.5054976 L19.0962647,19.5054976 L19.0962647,23.815813 Z" id="Path" fill="#E8F0FE"></path>
                <path d="M19.0962647,28.3170784 C15.549826,28.1806636 12.7399195,25.1525396 12.7399195,21.6061009 C12.7399195,18.0323562 15.549826,15.0042322 19.0962647,14.8951234 L19.0962647,10.4756992 C13.0672842,10.612114 8.18411893,15.5498529 8.18411893,21.6061009 C8.18411893,27.6623489 13.0400167,32.6000878 19.0962647,32.7365027 L19.0962647,28.3170784 Z" id="Path" fill="#D2E3FC"></path>
            </g>
        </g>
    </g>
</svg>