<?xml version="1.0" encoding="UTF-8"?>
<svg width="48px" height="48px" viewBox="0 0 48 48" version="1.1" xmlns="http://www.w3.org/2000/svg" xmlns:xlink="http://www.w3.org/1999/xlink">
    <title>stay-productive</title>
    <g id="Page-1" stroke="none" stroke-width="1" fill="none" fill-rule="evenodd">
        <g id="Opt2_v7" transform="translate(-981.000000, -3545.000000)">
            <g id="stay-productive" transform="translate(981.000000, 3545.000000)">
                <circle id="Oval-Copy-14" fill="#1A73E8" cx="24" cy="24" r="24"></circle>
                <g id="edit_note_gm_grey_24dp" transform="translate(15.613205, 17.428073)" fill="#FFFFFF" fill-rule="nonzero">
                    <path d="M0,5.29436095 L14.5594926,5.29436095 L14.5594926,7.94154143 L0,7.94154143 L0,5.29436095 Z M0,2.64718048 L14.5594926,2.64718048 L14.5594926,0 L0,0 L0,2.64718048 Z M0,13.2359024 L9.26513167,13.2359024 L9.26513167,10.5887219 L0,10.5887219 L0,13.2359024 Z M19.8670895,9.09306494 L20.8068385,8.15331587 C21.3230387,7.63711568 22.1569006,7.63711568 22.6731008,8.15331587 L23.6128499,9.09306494 C24.12905,9.60926513 24.12905,10.443127 23.6128499,10.9593272 L22.6731008,11.8990762 L19.8670895,9.09306494 Z M18.9273404,10.032814 L11.9123121,17.0478423 L11.9123121,19.8538536 L14.7183235,19.8538536 L21.7333517,12.8388253 L18.9273404,10.032814 Z" id="Shape"></path>
                </g>
            </g>
        </g>
    </g>
</svg>