<svg height="24" viewBox="0 0 25 24" width="25" xmlns="http://www.w3.org/2000/svg"><g fill="none" fill-rule="evenodd"><path d="m.5.333333h24v23h-24z"/><g fill-rule="nonzero" transform="translate(4.642857 1.333333)"><path d="m10.5343577 16.346417h-2.74014388-2.82974642v-5.6909748-5.6909748h2.82974642 2.74014388v5.6909748z" fill="#fff"/><path d="m5.32772111 0h-3.87470626c-.8027907 0-1.45301485.65022415-1.45301485 1.45301485v3.87470626 5.32772109 5.3277211l2.4398541.3632537 2.88786701-.3632537v-5.3277211-5.32772109h4.84338279l.3632538-2.66386055-.3632538-2.66386056z" fill="#fbbc04"/><path d="m5.32772111 15.9831633h-5.32772111v3.8747063c0 .8027907.65022415 1.4530148 1.45301485 1.4530148h3.87470626l.36325371-2.6638605z" fill="#188038"/><path d="m15.4988251 15.9831633-2.6638606-.3632537-2.6638606.3632537-.36325367 2.542776.36325367 2.7849451h3.8747063c.8027907 0 1.4530149-.6502241 1.4530149-1.4530148z" fill="#1967d2"/><path d="m5.327721 15.983163h4.843383v5.327721h-4.843383z" fill="#34a853"/><path d="m10.1711039 5.32772111v5.32772109 5.3277211h5.3277212v-5.3277211-5.32772109l-2.8212705-.36325371z" fill="#4285f4"/><path d="m10.1711039 0v5.32772111h5.3277212z" fill="#ea4335"/></g></g></svg>