<svg height="24" viewBox="0 0 25 24" width="25" xmlns="http://www.w3.org/2000/svg"><g fill="none" fill-rule="evenodd"><path d="m.5 0h24v24h-24z"/><g fill-rule="nonzero" transform="translate(1.5 3.375)"><path d="m0 2.375v2l2.29375 2.22 2.70625 1.53.5-3.36625-.5-3.13375-1.4-1.05c-1.48375-1.1125-3.6-.05375-3.6 1.8" fill="#c5221f"/><path d="m17 1.625-.5 3.175.5 3.325 2.45625-1.21625 2.54375-2.53375v-2c0-1.85375-2.11625-2.9125-3.6-1.8z" fill="#fbbc04"/><path d="m1.5 16.625h3.5v-8.5l-5-3.75v10.75c0 .82875.67125 1.5 1.5 1.5" fill="#4285f4"/><path d="m17 16.625h3.5c.82875 0 1.5-.67125 1.5-1.5v-10.75l-5 3.75z" fill="#34a853"/><path d="m11 6.125-6-4.5v6.5l6 4.5 6-4.5v-6.5z" fill="#ea4335"/></g></g></svg>