<svg height="24" viewBox="0 0 25 24" width="25" xmlns="http://www.w3.org/2000/svg"><g fill="none" fill-rule="evenodd"><path d="m.5 0h24v24h-24z"/><g fill-rule="nonzero" transform="translate(1.625 3)"><path d="m12.375 9 2.1325 2.4375 2.8675 1.8125.5-4.23375-.5-4.16-2.9225 1.61z" fill="#188038"/><path d="m0 12.875v3.625c0 .82875.67125 1.5 1.5 1.5h3.625l.75-2.74-.75-2.385-2.4875-.75z" fill="#1967d2"/><path d="m5.125 0-5.125 5.125 2.6375.75 2.4875-.75.7375-2.35375z" fill="#ea4335"/><path d="m0 5.125h5.125v7.75h-5.125z" fill="#4285f4"/><path d="m20.64875 2.17-3.27375 2.68625v8.39375l3.2875 2.79625c.4925.385 1.2125.03375 1.2125-.59125v-12.705c0-.63375-.73625-.98125-1.22625-.58z" fill="#34a853"/><path d="m12.375 9v3.875h-7.25v5.125h10.75c.82875 0 1.5-.67125 1.5-1.5v-3.25z" fill="#34a853"/><path d="m15.875 0h-10.75v5.125h7.25v3.875l5-4.14375v-3.35625c0-.82875-.67125-1.5-1.5-1.5z" fill="#fbbc04"/></g></g></svg>